<svg width="153" height="20" viewBox="0 0 153 20" fill="none" xmlns="http://www.w3.org/2000/svg">
<path fill-rule="evenodd" clip-rule="evenodd" d="M137.054 0.5L149.115 12.5609V1.22464L149.478 0.861705H151.859L152.222 1.22464V19.4975H151.652L139.798 7.64398V19.1358L139.435 19.4975H137.054L136.692 19.1358V0.861705L137.054 0.5Z" fill="black"/>
<path fill-rule="evenodd" clip-rule="evenodd" d="M80.7994 0.5L85.5102 11.8635L90.221 0.5H93.585L85.8719 19.1371L85.5102 19.5L85.1473 19.1371L77.4342 0.5H80.7994Z" fill="black"/>
<path fill-rule="evenodd" clip-rule="evenodd" d="M108.644 0.5C110.456 0.5 112.174 1.44685 113.121 2.82948L111.31 4.64171H110.74C110.364 3.83929 109.539 3.34796 108.644 3.34796C107.578 3.34796 106.579 4.22445 106.52 5.34043C106.477 6.17988 106.862 6.70454 107.557 7.15265C108.305 7.63534 108.611 7.83656 109.627 8.39455C110.735 9.00315 113.536 10.1969 113.536 13.3387C113.536 16.436 110.947 19.3173 107.608 19.3173C107.179 19.3173 106.403 19.2692 105.823 19.1358C104.187 18.7396 103.194 18.1211 102.122 16.8582L104.451 14.4769L105.254 15.1497C105.615 15.4336 106.41 16.0052 107.167 16.1076C108.705 16.3163 109.737 15.299 109.937 14.2954C110.096 13.5029 109.895 12.3202 108.618 11.7079C108.618 11.7079 106.314 10.4278 105.304 9.84384C104.276 9.24881 103.182 7.62423 103.182 5.67744C103.182 4.22815 103.846 2.82454 104.917 1.84683C105.744 1.08885 106.878 0.5 108.644 0.5Z" fill="black"/>
<path fill-rule="evenodd" clip-rule="evenodd" d="M99.0558 0.5V18.7741L98.6929 19.1358H95.9498V0.862939L96.3115 0.5H99.0558Z" fill="black"/>
<path fill-rule="evenodd" clip-rule="evenodd" d="M125.022 0.5C127.493 0.5 129.863 1.48171 131.61 3.22915C133.358 4.9766 134.34 7.34665 134.34 9.81791C134.34 12.2892 133.358 14.6592 131.61 16.4067C129.863 18.1541 127.493 19.1358 125.022 19.1358C122.55 19.1358 120.18 18.1541 118.433 16.4067C116.685 14.6592 115.704 12.2892 115.704 9.81791C115.704 7.34665 116.685 4.9766 118.433 3.22915C120.18 1.48171 122.55 0.5 125.022 0.5ZM125.02 3.60721C124.205 3.60729 123.397 3.76806 122.643 4.08034C121.889 4.39263 121.204 4.85031 120.628 5.42726C119.463 6.59245 118.808 8.17271 118.808 9.82038C118.809 11.4681 119.463 13.0482 120.629 14.2131C121.794 15.3781 123.374 16.0325 125.022 16.0323C126.669 16.0323 128.25 15.3778 129.415 14.2127C130.58 13.0476 131.234 11.4674 131.234 9.81976C131.234 8.17209 130.58 6.5919 129.415 5.42682C128.25 4.26174 126.669 3.60721 125.022 3.60721H125.02Z" fill="black"/>
<path fill-rule="evenodd" clip-rule="evenodd" d="M25.8154 0.5C27.6276 0.5 29.346 1.44685 30.2929 2.82948L28.4819 4.64171H27.9115C27.5363 3.83929 26.7104 3.34796 25.8154 3.34796C24.75 3.34796 23.7513 4.22445 23.6921 5.34043C23.6489 6.17988 24.034 6.70454 24.729 7.15265C25.4771 7.63534 25.7833 7.83656 26.7993 8.39455C27.9066 9.00315 30.7077 10.1969 30.7077 13.3387C30.7077 16.436 28.1189 19.3173 24.7796 19.3173C24.3513 19.3173 23.5748 19.2692 22.9946 19.1358C21.3589 18.7396 20.3663 18.1211 19.2936 16.8582L21.6231 14.4769L22.4255 15.1497C22.7872 15.4336 23.5822 16.0052 24.3389 16.1076C25.8771 16.3163 26.9091 15.299 27.1091 14.2954C27.2684 13.5029 27.0671 12.3202 25.7895 11.7079C25.7895 11.7079 23.4859 10.4278 22.4761 9.84384C21.4478 9.24881 20.354 7.62423 20.354 5.67744C20.354 4.22815 21.0182 2.82454 22.0885 1.84683C22.9156 1.08885 24.0501 0.5 25.8154 0.5Z" fill="black"/>
<path fill-rule="evenodd" clip-rule="evenodd" d="M39.3974 0.5C41.2096 0.5 42.928 1.44685 43.8749 2.82948L42.0639 4.64171H41.4936C41.1183 3.83929 40.2924 3.34796 39.3974 3.34796C38.332 3.34796 37.3333 4.22445 37.2741 5.34043C37.2309 6.17988 37.616 6.70454 38.3111 7.15265C39.0592 7.63534 39.3653 7.83656 40.3813 8.39455C41.4886 9.00315 44.2897 10.1969 44.2897 13.3387C44.2897 16.436 41.701 19.3173 38.3617 19.3173C37.9333 19.3173 37.1568 19.2692 36.5766 19.1358C34.9409 18.7396 33.9484 18.1211 32.8756 16.8582L35.2051 14.4769L36.0075 15.1497C36.3692 15.4336 37.1642 16.0052 37.921 16.1076C39.4591 16.3163 40.4912 15.299 40.6912 14.2954C40.8504 13.5029 40.6492 12.3202 39.3715 11.7079C39.3715 11.7079 37.0679 10.4278 36.0581 9.84384C35.0298 9.24881 33.936 7.62423 33.936 5.67744C33.936 4.22815 34.6002 2.82454 35.6705 1.84683C36.4976 1.08885 37.6321 0.5 39.3974 0.5Z" fill="black"/>
<path fill-rule="evenodd" clip-rule="evenodd" d="M16.2277 0.5V18.7741L15.8647 19.1358H13.1217V0.862939L13.4834 0.5H16.2277Z" fill="black"/>
<path fill-rule="evenodd" clip-rule="evenodd" d="M55.7716 0.5C58.2429 0.5 60.613 1.48171 62.3604 3.22915C64.1079 4.9766 65.0896 7.34665 65.0896 9.81791C65.0896 12.2892 64.1079 14.6592 62.3604 16.4067C60.613 18.1541 58.2429 19.1358 55.7716 19.1358C53.3004 19.1358 50.9303 18.1541 49.1829 16.4067C47.4354 14.6592 46.4537 12.2892 46.4537 9.81791C46.4537 7.34665 47.4354 4.9766 49.1829 3.22915C50.9303 1.48171 53.3004 0.5 55.7716 0.5ZM55.7704 3.60721C54.9546 3.60729 54.1467 3.76806 53.393 4.08034C52.6393 4.39263 51.9545 4.85031 51.3777 5.42726C50.2127 6.59245 49.5583 8.17271 49.5585 9.82038C49.5586 11.4681 50.2133 13.0482 51.3785 14.2131C52.5437 15.3781 54.124 16.0325 55.7716 16.0323C57.4193 16.0323 58.9995 15.3778 60.1646 14.2127C61.3297 13.0476 61.9842 11.4674 61.9842 9.81976C61.9842 8.17209 61.3297 6.5919 60.1646 5.42682C58.9995 4.26174 57.4193 3.60721 55.7716 3.60721H55.7704Z" fill="black"/>
<path fill-rule="evenodd" clip-rule="evenodd" d="M10.0959 0.5V3.24427L9.73293 3.60597H6.98989V19.1358H3.88392V3.60597H0.777954V0.862939L1.14089 0.5H10.0959Z" fill="black"/>
</svg>
