<svg width="193" height="45" viewBox="0 0 193 45" fill="none" xmlns="http://www.w3.org/2000/svg">
<rect width="193" height="45" fill="black"/>
<path d="M37.7898 24.608C38.0458 25.056 38.3124 25.4507 38.5898 25.792C38.8778 26.1333 39.1978 26.4 39.5498 26.592C39.9018 26.784 40.3018 26.88 40.7498 26.88C41.3471 26.88 41.8271 26.7147 42.1898 26.384C42.5524 26.0533 42.7338 25.632 42.7338 25.12C42.7338 24.6187 42.6164 24.2187 42.3818 23.92C42.1471 23.6213 41.8378 23.3813 41.4538 23.2C41.0804 23.008 40.6804 22.8373 40.2538 22.688C39.9764 22.592 39.6671 22.4693 39.3258 22.32C38.9844 22.16 38.6591 21.9627 38.3498 21.728C38.0404 21.4827 37.7844 21.184 37.5818 20.832C37.3898 20.48 37.2938 20.048 37.2938 19.536C37.2938 18.9813 37.4324 18.4853 37.7098 18.048C37.9871 17.6107 38.3711 17.2693 38.8618 17.024C39.3524 16.768 39.9124 16.64 40.5418 16.64C41.1498 16.64 41.6778 16.7573 42.1258 16.992C42.5844 17.216 42.9738 17.5093 43.2938 17.872C43.6138 18.224 43.8644 18.5973 44.0458 18.992L42.8778 19.664C42.7391 19.3867 42.5631 19.1147 42.3498 18.848C42.1364 18.5813 41.8751 18.3627 41.5658 18.192C41.2671 18.0213 40.8991 17.936 40.4618 17.936C39.8538 17.936 39.4111 18.0853 39.1338 18.384C38.8564 18.672 38.7178 18.9973 38.7178 19.36C38.7178 19.6693 38.7978 19.9573 38.9578 20.224C39.1178 20.48 39.3844 20.7253 39.7578 20.96C40.1418 21.184 40.6591 21.408 41.3098 21.632C41.6084 21.7387 41.9231 21.8773 42.2538 22.048C42.5844 22.2187 42.8884 22.4373 43.1658 22.704C43.4538 22.96 43.6884 23.2747 43.8698 23.648C44.0511 24.0107 44.1418 24.448 44.1418 24.96C44.1418 25.4507 44.0458 25.8933 43.8538 26.288C43.6724 26.6827 43.4164 27.0187 43.0858 27.296C42.7658 27.5733 42.3978 27.7867 41.9818 27.936C41.5764 28.0853 41.1498 28.16 40.7018 28.16C40.0938 28.16 39.5284 28.032 39.0058 27.776C38.4938 27.5093 38.0404 27.1627 37.6458 26.736C37.2618 26.2987 36.9471 25.8347 36.7018 25.344L37.7898 24.608ZM46.8914 22.56V21.28H54.5714V22.56H46.8914ZM53.6594 16.8H55.0194V28H53.6594V16.8ZM46.1394 16.8H47.4994V28H46.1394V16.8ZM58.3769 22.4C58.3769 23.2427 58.5582 23.9947 58.9209 24.656C59.2942 25.3173 59.8009 25.84 60.4409 26.224C61.0809 26.608 61.8062 26.8 62.6169 26.8C63.4382 26.8 64.1635 26.608 64.7929 26.224C65.4329 25.84 65.9342 25.3173 66.2969 24.656C66.6702 23.9947 66.8569 23.2427 66.8569 22.4C66.8569 21.5573 66.6702 20.8053 66.2969 20.144C65.9342 19.4827 65.4329 18.96 64.7929 18.576C64.1635 18.192 63.4382 18 62.6169 18C61.8062 18 61.0809 18.192 60.4409 18.576C59.8009 18.96 59.2942 19.4827 58.9209 20.144C58.5582 20.8053 58.3769 21.5573 58.3769 22.4ZM56.9369 22.4C56.9369 21.5787 57.0755 20.8213 57.3529 20.128C57.6409 19.424 58.0409 18.816 58.5529 18.304C59.0649 17.7813 59.6675 17.376 60.3609 17.088C61.0542 16.7893 61.8062 16.64 62.6169 16.64C63.4382 16.64 64.1902 16.7893 64.8729 17.088C65.5662 17.376 66.1689 17.7813 66.6809 18.304C67.1929 18.816 67.5875 19.424 67.8649 20.128C68.1529 20.8213 68.2969 21.5787 68.2969 22.4C68.2969 23.2107 68.1529 23.968 67.8649 24.672C67.5875 25.376 67.1929 25.9893 66.6809 26.512C66.1689 27.024 65.5662 27.4293 64.8729 27.728C64.1902 28.016 63.4382 28.16 62.6169 28.16C61.8062 28.16 61.0542 28.016 60.3609 27.728C59.6675 27.4293 59.0649 27.024 58.5529 26.512C58.0409 25.9893 57.6409 25.376 57.3529 24.672C57.0755 23.968 56.9369 23.2107 56.9369 22.4ZM70.2175 16.8H71.5775V28H70.2175V16.8ZM70.9695 18.08V16.8H73.2575C73.9828 16.8 74.6282 16.9387 75.1935 17.216C75.7695 17.4827 76.2228 17.8667 76.5535 18.368C76.8948 18.8693 77.0655 19.4667 77.0655 20.16C77.0655 20.8427 76.8948 21.44 76.5535 21.952C76.2228 22.4533 75.7695 22.8427 75.1935 23.12C74.6282 23.3867 73.9828 23.52 73.2575 23.52H70.9695V22.24H73.2575C73.9828 22.24 74.5695 22.064 75.0175 21.712C75.4762 21.36 75.7055 20.8427 75.7055 20.16C75.7055 19.4667 75.4762 18.9493 75.0175 18.608C74.5695 18.256 73.9828 18.08 73.2575 18.08H70.9695ZM92.26 16.8H93.62V28.56L85.14 19.664V28H83.78V16.24L92.26 25.136V16.8ZM96.9863 22.4C96.9863 23.2427 97.1676 23.9947 97.5303 24.656C97.9036 25.3173 98.4103 25.84 99.0503 26.224C99.6903 26.608 100.416 26.8 101.226 26.8C102.048 26.8 102.773 26.608 103.402 26.224C104.042 25.84 104.544 25.3173 104.906 24.656C105.28 23.9947 105.466 23.2427 105.466 22.4C105.466 21.5573 105.28 20.8053 104.906 20.144C104.544 19.4827 104.042 18.96 103.402 18.576C102.773 18.192 102.048 18 101.226 18C100.416 18 99.6903 18.192 99.0503 18.576C98.4103 18.96 97.9036 19.4827 97.5303 20.144C97.1676 20.8053 96.9863 21.5573 96.9863 22.4ZM95.5463 22.4C95.5463 21.5787 95.6849 20.8213 95.9622 20.128C96.2503 19.424 96.6503 18.816 97.1623 18.304C97.6743 17.7813 98.2769 17.376 98.9703 17.088C99.6636 16.7893 100.416 16.64 101.226 16.64C102.048 16.64 102.8 16.7893 103.482 17.088C104.176 17.376 104.778 17.7813 105.29 18.304C105.802 18.816 106.197 19.424 106.474 20.128C106.762 20.8213 106.906 21.5787 106.906 22.4C106.906 23.2107 106.762 23.968 106.474 24.672C106.197 25.376 105.802 25.9893 105.29 26.512C104.778 27.024 104.176 27.4293 103.482 27.728C102.8 28.016 102.048 28.16 101.226 28.16C100.416 28.16 99.6636 28.016 98.9703 27.728C98.2769 27.4293 97.6743 27.024 97.1623 26.512C96.6503 25.9893 96.2503 25.376 95.9622 24.672C95.6849 23.968 95.5463 23.2107 95.5463 22.4ZM118.311 25.04L121.223 16.8H122.743L118.343 28.56L114.983 19.856L111.623 28.56L107.223 16.8H108.743L111.719 25.04L114.983 16.24L118.311 25.04Z" fill="#F5F5F5"/>
<path d="M149 21.75L148.25 21.75L148.25 23.25L149 23.25L149 21.75ZM173.53 23.0303C173.823 22.7374 173.823 22.2626 173.53 21.9697L168.757 17.1967C168.464 16.9038 167.99 16.9038 167.697 17.1967C167.404 17.4896 167.404 17.9645 167.697 18.2574L171.939 22.5L167.697 26.7426C167.404 27.0355 167.404 27.5104 167.697 27.8033C167.99 28.0962 168.464 28.0962 168.757 27.8033L173.53 23.0303ZM149 23.25L173 23.25L173 21.75L149 21.75L149 23.25Z" fill="#F5F5F5"/>
</svg>
